      Video #561
      ID : 561 (0x231)
      Menu ID : 1 (0x1)
      Format : AVC
      Format/Info : Advanced Video Codec
      Format profile : Main@L3.0
      Format settings, CABAC : Yes
      Format settings, ReFrames : 4 frames
      Codec ID : 27
      Duration : 46mn 15s
      Bit rate : 1 064 Kbps
      Width : 720 pixels
      Height : 576 pixels
      Display aspect ratio : 4:3
      Frame rate : 25.000 fps
      Standard : PAL
      Color space : YUV
      Chroma subsampling : 4:2:0
      Bit depth : 8 bits
      Scan type : MBAFF
      Bits/(Pixel*Frame) : 0.103
      Stream size : 352 MiB (76%)
      Color primaries : BT.601 PAL
      Transfer characteristics : BT.470 System B, BT.470 System G
      Matrix coefficients : BT.601
      Audio #577
      ID : 577 (0x241)
      Menu ID : 1 (0x1)
      Format : MPEG Audio
      Format version : Version 1
      Format profile : Layer 2
      Codec ID : 3
      Duration : 46mn 14s
      Bit rate mode : Constant
      Bit rate : 256 Kbps
      Channel(s) : 2 channels
      Sampling rate : 48.0 KHz
      Compression mode : Lossy
      Stream size : 84.7 MiB (18%)
      Language : Bulgarian